<svg width="150" height="150" viewBox="0 0 150 150" fill="none" xmlns="http://www.w3.org/2000/svg">
<g id="Sahil">
<g id="hex">
<path id="Polygon 1" d="M68.25 5.62916C72.4269 3.21762 77.5731 3.21762 81.75 5.62916L131.702 34.4689C135.879 36.8805 138.452 41.3372 138.452 46.1603V103.84C138.452 108.663 135.879 113.12 131.702 115.531L81.75 144.371C77.5731 146.782 72.4269 146.782 68.25 144.371L18.2981 115.531C14.1212 113.12 11.5481 108.663 11.5481 103.84V46.1603C11.5481 41.3372 14.1212 36.8805 18.2981 34.4689L68.25 5.62916Z" fill="#004500" stroke="white" stroke-width="3"/>
</g>
<g id="txt">
<path id="S" d="M74.4386 110.152C69.1266 110.152 63.9746 109.448 58.9826 108.04C54.0546 106.568 50.0866 104.68 47.0786 102.376L52.3586 90.664C55.2386 92.776 58.6626 94.472 62.6306 95.752C66.5986 97.032 70.5666 97.672 74.5346 97.672C78.9506 97.672 82.2146 97.032 84.3266 95.752C86.4386 94.408 87.4946 92.648 87.4946 90.472C87.4946 88.872 86.8546 87.56 85.5746 86.536C84.3586 85.448 82.7586 84.584 80.7746 83.944C78.8546 83.304 76.2306 82.6 72.9026 81.832C67.7826 80.616 63.5906 79.4 60.3266 78.184C57.0626 76.968 54.2466 75.016 51.8786 72.328C49.5746 69.64 48.4226 66.056 48.4226 61.576C48.4226 57.672 49.4786 54.152 51.5906 51.016C53.7026 47.816 56.8706 45.288 61.0946 43.432C65.3826 41.576 70.5986 40.648 76.7426 40.648C81.0306 40.648 85.2226 41.16 89.3186 42.184C93.4146 43.208 96.9986 44.68 100.071 46.6L95.2706 58.408C89.0626 54.888 82.8546 53.128 76.6466 53.128C72.2946 53.128 69.0626 53.832 66.9506 55.24C64.9026 56.648 63.8786 58.504 63.8786 60.808C63.8786 63.112 65.0626 64.84 67.4306 65.992C69.8626 67.08 73.5426 68.168 78.4706 69.256C83.5906 70.472 87.7826 71.688 91.0466 72.904C94.3106 74.12 97.0946 76.04 99.3986 78.664C101.767 81.288 102.951 84.84 102.951 89.32C102.951 93.16 101.863 96.68 99.6866 99.88C97.5746 103.016 94.3746 105.512 90.0866 107.368C85.7986 109.224 80.5826 110.152 74.4386 110.152Z" fill="white"/>
</g>
</g>
</svg>
