<svg width="512" height="512" viewBox="0 0 512 512" fill="none" xmlns="http://www.w3.org/2000/svg">
<g clip-path="url(#clip0)">
<path d="M350.154 3.69231L320.615 16L328.615 52.9231C321.231 58.3077 315.154 65.0769 309.538 72.6154L272 64L259.692 93.5384L291.692 113.846C290.231 123.077 290.385 132.385 291.692 141.538L259.692 161.846L271.385 191.385L308.923 183.385C314.308 190.692 321.077 196.846 328.615 202.462L319.385 240L348.923 252.308L369.846 219.692C379.077 221.077 388.538 221.077 397.538 219.692L417.846 252.308L447.385 240.615L438.769 203.077C446.077 197.692 452.308 190.846 457.846 183.385L496 192L508.308 162.462L475.692 142.154C477.077 132.923 477 124.077 475.692 115.077L508.308 94.1538L496 64.6154L458.461 73.2308C453.154 65.8461 446.846 59.1538 439.385 53.5385L448 16.6154L418.461 4.30769L398.154 36.3077C388.923 34.8461 379.538 35 370.461 36.3077L350.154 3.69231ZM384 83.6923C389.769 83.6923 395.538 85 401.231 87.3846C423.923 96.9231 434.692 122.538 425.231 145.231C415.769 167.923 389.461 178.692 366.769 169.231C344.077 159.769 333.308 133.538 342.769 110.769C349.923 93.7692 366.615 83.7692 384 83.6923ZM145.231 178.462L137.231 227.692C125.308 230.615 114.231 235.154 104 241.231L63.3846 212.308L33.8461 241.846L62.1538 282.461C56 292.692 51.6154 304.385 48.6153 316.308L-0.615417 324.308V366.154L48.6153 374.769C51.5384 386.692 55.923 397.769 62.1538 408L33.2307 448.615L62.7692 478.154L104 449.846C114.231 456 125.385 460.461 137.231 463.385L145.231 512.615H187.077L195.692 463.385C207.538 460.385 218.769 455.385 228.923 449.231L270.154 478.154L299.692 448.615L270.154 408C276.231 397.846 280.769 386.615 283.692 374.769L333.538 366.154V324.308L283.692 316.308C280.769 304.538 276.231 293.231 270.154 283.077L299.077 241.846L269.538 212.308L228.923 241.846C218.692 235.692 207.538 230.615 195.692 227.692L187.077 178.462H145.231ZM166.769 287.385C199 287.385 224.615 313 224.615 345.231C224.615 377.461 199 403.692 166.769 403.692C134.538 403.692 108.308 377.461 108.308 345.231C108.308 313 134.538 287.385 166.769 287.385Z" fill="white"/>
</g>
<defs>
<clipPath id="clip0">
<rect width="512" height="512" fill="white"/>
</clipPath>
</defs>
</svg>
