<svg width="40" height="40" viewBox="0 0 512 512" fill="none" xmlns="http://www.w3.org/2000/svg">
<path d="M256 181C222.909 181 196 207.909 196 241C196 274.091 222.909 301 256 301C289.091 301 316 274.091 316 241C316 207.909 289.091 181 256 181Z" fill="white"/>
<path d="M499.461 211.205L459.613 204.73C454.618 184.837 446.766 165.941 436.205 148.319L459.115 116.224C463.378 110.262 462.704 102.088 457.518 96.903L415.096 54.481C409.881 49.281 401.722 48.592 395.775 52.884L363.68 75.794C346.058 65.232 327.161 57.381 307.269 52.386L300.794 12.538C299.594 5.303 293.339 0 286 0H226C218.661 0 212.406 5.303 211.205 12.539L204.73 52.387C184.837 57.382 165.941 65.234 148.319 75.795L116.224 52.885C110.262 48.593 102.074 49.281 96.903 54.482L54.481 96.903C49.295 102.089 48.622 110.262 52.884 116.224L75.794 148.319C65.232 165.941 57.381 184.838 52.386 204.73L12.538 211.205C5.303 212.406 0 218.661 0 226V286C0 293.339 5.303 299.594 12.539 300.795L52.387 307.27C57.382 327.163 65.234 346.059 75.795 363.681L52.885 395.776C48.622 401.738 49.296 409.912 54.482 415.097L96.904 457.519C102.075 462.69 110.263 463.349 116.225 459.116L148.32 436.206C165.942 446.768 184.839 454.619 204.731 459.614L211.206 499.462C212.406 506.697 218.661 512 226 512H286C293.339 512 299.594 506.697 300.795 499.461L307.27 459.613C327.163 454.618 346.059 446.766 363.681 436.205L395.776 459.115C401.723 463.348 409.882 462.689 415.097 457.518L457.519 415.096C462.705 409.91 463.378 401.737 459.116 395.775L436.206 363.68C446.768 346.058 454.619 327.161 459.614 307.269L499.462 300.794C506.697 299.594 512 293.339 512 286V226C512 218.661 506.697 212.406 499.461 211.205ZM256 421C165.019 421 91 346.981 91 256C91 165.019 165.019 91 256 91C346.981 91 421 165.019 421 256C421 346.981 346.981 421 256 421Z" fill="white"/>
<path d="M325.29 297.732C308.773 317.866 284.017 331 256 331C227.983 331 203.227 317.866 186.709 297.732C172.33 310.476 161.841 327.183 156.055 345.929C180.784 373.387 216.224 391 256 391C295.776 391 331.216 373.387 355.944 345.929C350.158 327.183 339.67 310.476 325.29 297.732Z" fill="white"/>
</svg>
