<svg width="40" height="40" viewBox="0 0 250 250" fill="none" xmlns="http://www.w3.org/2000/svg">
<g clip-path="url(#clip0)">
<path d="M169.931 75.7561C167.231 75.7561 165.039 77.9381 165.039 80.637C165.039 83.334 167.231 85.5198 169.931 85.5198C172.638 85.5198 174.824 83.334 174.824 80.637C174.824 77.9381 172.638 75.7561 169.931 75.7561Z" fill="white"/>
<path d="M81.0394 164.473C78.3333 164.473 76.147 166.66 76.147 169.355C76.147 172.056 78.3333 174.238 81.0394 174.238C83.7398 174.238 85.9318 172.056 85.9318 169.355C85.9318 166.66 83.7398 164.473 81.0394 164.473Z" fill="white"/>
<path d="M244.647 30.0383C242.996 29.655 241.261 30.1528 240.068 31.3544L219.786 51.7573H210.062L199.358 40.689V30.849L219.35 10.5986C220.533 9.40081 221.015 7.67848 220.623 6.04006C220.233 4.40356 219.025 3.08367 217.428 2.5458C212.405 0.855887 207.15 -0.000513321 201.804 -0.000513321C185.87 -0.000513321 171.393 7.41526 162.086 20.3452C153.376 32.4492 150.691 47.2827 154.538 61.4791L118.5 97.446L58.4619 37.3874V25.5999C58.4619 23.8852 57.5599 22.2945 56.0864 21.4133L21.4939 0.695669C19.5676 -0.458277 17.1042 -0.155009 15.518 1.43L1.68176 15.2373C0.0955643 16.8223 -0.208297 19.2809 0.945996 21.2035L21.7003 55.7284C22.5833 57.199 24.1752 58.0974 25.8933 58.0993L37.6999 58.1031L97.7442 118.162L61.8445 153.991C47.6203 150.154 32.7502 152.837 20.6168 161.537C7.66918 170.82 0.244629 185.264 0.244629 201.168C0.244629 206.501 1.1027 211.748 2.79592 216.758C3.33676 218.362 4.6726 219.574 6.32378 219.955C7.97686 220.338 9.71022 219.841 10.9046 218.639L31.185 198.238H40.9621L52.1018 209.356V219.114L31.6609 239.355C30.4569 240.547 29.9581 242.277 30.3422 243.927C30.7245 245.575 31.938 246.908 33.5452 247.448C38.5656 249.138 43.823 249.994 49.1664 249.994C65.101 249.994 79.5717 242.582 88.8748 229.66C97.5913 217.55 100.28 202.711 96.4351 188.514L125.268 159.738L131.872 166.898L128.841 169.921C126.93 171.829 126.93 174.921 128.841 176.828C130.752 178.733 133.848 178.733 135.761 176.828L138.506 174.089L200.474 241.27C200.52 241.319 200.568 241.367 200.616 241.415C212.082 252.859 230.66 252.863 242.132 241.413C253.572 229.99 253.572 211.403 242.132 199.979C242.082 199.93 242.031 199.882 241.979 199.834L174.562 138.105L177.276 135.397C179.187 133.491 179.187 130.399 177.276 128.492C175.365 126.585 172.269 126.585 170.356 128.492L167.346 131.498L160.158 124.914L189.13 95.9983C193.249 97.0969 197.499 97.6539 201.804 97.6539C228.781 97.6539 250.726 75.7499 250.726 48.8276C250.726 43.4928 249.868 38.2476 248.175 33.2351C247.634 31.631 246.298 30.4198 244.647 30.0383V30.0383ZM43.1924 49.7718C42.275 48.8543 41.0309 48.387 39.7314 48.387L28.6662 48.3832L11.3021 19.4487L19.7357 11.0316L48.6772 28.3656V39.4091C48.6772 40.7023 49.1912 41.9421 50.1067 42.8576L111.582 104.353L104.662 111.257L43.1924 49.7718ZM167.636 145.017L235.283 206.955C242.839 214.576 242.816 226.917 235.212 234.51C227.591 242.117 215.253 242.139 207.601 234.577L145.429 167.177L167.636 145.017ZM160.42 138.408L138.796 159.986L132.191 152.826L153.232 131.824L160.42 138.408ZM201.804 87.8883C197.526 87.8883 193.317 87.2035 189.3 85.8531C187.54 85.2637 185.595 85.7177 184.28 87.028C159.753 111.507 106.904 164.251 87.4434 183.675C86.1286 184.988 85.6719 186.929 86.2662 188.688C90.333 200.74 88.3875 213.596 80.9267 223.962C73.4868 234.298 61.9095 240.228 49.1664 240.228C47.735 240.228 46.3112 240.15 44.9009 239.999L60.4399 224.611C61.3648 223.695 61.8866 222.448 61.8866 221.145V207.332C61.8866 206.037 61.3706 204.795 60.4532 203.88L46.4469 189.901C45.5296 188.985 44.2855 188.47 42.9879 188.47H29.1478C27.8426 188.47 26.5927 188.991 25.6735 189.914L10.2568 205.423C10.1039 204.015 10.0275 202.594 10.0275 201.166C10.0275 188.446 15.9671 176.893 26.3252 169.468C36.71 162.021 49.5926 160.078 61.6706 164.138C63.4307 164.732 65.3762 164.276 66.691 162.963C66.9605 162.696 163.459 66.3848 163.527 66.3161C164.842 65.0039 165.297 63.0641 164.705 61.3055C160.636 49.253 162.578 36.4013 170.033 26.0424C177.478 15.697 189.058 9.76512 201.803 9.76512C203.278 9.76512 204.744 9.84713 206.196 10.0074L190.98 25.4206C190.078 26.3343 189.574 27.5645 189.574 28.8462V42.6593C189.574 43.9258 190.065 45.1407 190.946 46.0505L204.463 60.0295C205.384 60.9832 206.655 61.5211 207.983 61.5211H221.823C223.126 61.5211 224.376 61.0023 225.295 60.0772L240.712 44.5704C240.865 45.9781 240.942 47.399 240.942 48.8276C240.942 70.3654 223.384 87.8883 201.804 87.8883V87.8883Z" fill="white"/>
<path d="M152.636 90.9939L91.4147 152.096C89.5055 154.001 89.5055 157.093 91.4147 159C93.3257 160.908 96.4236 160.908 98.3347 159L159.556 97.8985C161.467 95.9931 161.467 92.9013 159.556 90.9939C157.645 89.0866 154.547 89.0866 152.636 90.9939V90.9939Z" fill="white"/>
<path d="M214.46 220.703C216.371 222.605 219.469 222.605 221.38 220.692C223.287 218.783 223.281 215.691 221.368 213.787L177.27 169.916C175.357 168.013 172.257 168.018 170.352 169.928C168.443 171.839 168.448 174.929 170.361 176.832L214.46 220.703Z" fill="white"/>
</g>
<defs>
<clipPath id="clip0">
<rect width="250" height="250" fill="white"/>
</clipPath>
</defs>
</svg>
